<?xml version="1.0" encoding="utf-8"?>
<!-- Generator: Adobe Illustrator 21.0.0, SVG Export Plug-In . SVG Version: 6.00 Build 0)  -->
<svg version="1.1" id="图层_1" xmlns="http://www.w3.org/2000/svg" xmlns:xlink="http://www.w3.org/1999/xlink" x="0px" y="0px"
	 viewBox="0 0 20 20" style="enable-background:new 0 0 20 20;" xml:space="preserve">
<style type="text/css">
	.st0{fill:#05AFFD;stroke:#FFFFFF;stroke-miterlimit:10;}
	.st1{fill:#FFFFFF;}
</style>
<title>办事大厅</title>
<circle class="st0" cx="10" cy="10" r="9.5"/>
<path class="st1" d="M14.9,7.2h-0.2V6.1c0-0.4-0.3-0.8-0.6-1c0,0-1.2-0.6-4.1-0.6S5.9,5.1,5.9,5.1c-0.3,0.2-0.6,0.6-0.6,1v1.1H5.1
	c-0.4,0-0.7,0.3-0.7,0.7v0.7c0,0.4,0.3,0.7,0.7,0.7h0.2v4.6c0,0.3,0.2,0.5,0.4,0.6v0.4c0,0.5,0.4,0.9,0.9,0.9s0.9-0.4,0.9-0.9v-0.3
	h4.9v0.3c0,0.5,0.4,0.9,0.9,0.9c0.5,0,0.9-0.4,0.9-0.9v-0.4c0.3-0.1,0.4-0.3,0.4-0.6V9.3h0.2c0.4,0,0.7-0.3,0.7-0.7V7.9
	C15.6,7.5,15.3,7.2,14.9,7.2L14.9,7.2z M7.8,5.7c0-0.1,0.1-0.2,0.2-0.2h4c0.1,0,0.2,0.1,0.2,0.2v0.4c0,0.1-0.1,0.2-0.2,0.2H8
	c-0.1,0-0.2-0.1-0.2-0.2V5.7z M6.7,13.6c-0.3,0-0.6-0.3-0.6-0.6s0.3-0.6,0.6-0.6c0.3,0,0.6,0.3,0.6,0.6S7.1,13.6,6.7,13.6z
	 M13.3,13.6c-0.3,0-0.6-0.3-0.6-0.6s0.3-0.6,0.6-0.6s0.6,0.3,0.6,0.6S13.6,13.6,13.3,13.6z M13.8,11c0,0.1-0.1,0.2-0.2,0.2H6.4
	c-0.1,0-0.2-0.1-0.2-0.2V7.5c0-0.1,0.1-0.2,0.2-0.2h7.2c0.1,0,0.2,0.1,0.2,0.2V11z"/>
</svg>
