<?xml version="1.0" encoding="utf-8"?>
<!-- Generator: Adobe Illustrator 21.0.0, SVG Export Plug-In . SVG Version: 6.00 Build 0)  -->
<svg version="1.1" id="图层_1" xmlns="http://www.w3.org/2000/svg" xmlns:xlink="http://www.w3.org/1999/xlink" x="0px" y="0px"
	 viewBox="0 0 20 20" style="enable-background:new 0 0 20 20;" xml:space="preserve">
<style type="text/css">
	.st0{fill:#FF473E;stroke:#FFFFFF;stroke-miterlimit:10;}
	.st1{fill:#FFFFFF;}
</style>
<title>办事大厅</title>
<circle class="st0" cx="10" cy="10" r="9.5"/>
<path class="st1" d="M14.4,9h-1.2c-0.4,0-0.8,0.3-0.8,0.8v4.3c0,0.4,0.3,0.8,0.8,0.8h1.2c0.4,0,0.8-0.3,0.8-0.8V9.8
	C15.2,9.4,14.9,9,14.4,9z M14.1,12.3h-0.4c-0.2,0-0.4-0.2-0.4-0.4c0-0.2,0.2-0.4,0.4-0.4h0.4c0.2,0,0.4,0.2,0.4,0.4
	S14.3,12.3,14.1,12.3z M11,4.6L11,4.6c-0.3,0-0.4-0.2-0.4-0.3V3.7c0-0.2-0.1-0.4-0.3-0.4c-0.2,0-0.4,0.1-0.4,0.3c0,0,0,0,0,0.1v0.6
	c0,0.2-0.2,0.3-0.3,0.3l0,0h0C9,4.6,8.6,4.9,8.6,5.4v8.7c0,0.4,0.3,0.8,0.8,0.8H11c0.4,0,0.8-0.3,0.8-0.8V5.4
	C11.7,4.9,11.4,4.6,11,4.6z M10.6,12.3H9.8c-0.2,0-0.4-0.2-0.4-0.4c0-0.2,0.2-0.4,0.4-0.4h0.8c0.2,0,0.4,0.2,0.4,0.4
	S10.8,12.3,10.6,12.3z M10.6,10.2H9.8c-0.2,0-0.4-0.2-0.4-0.4c0-0.2,0.2-0.4,0.4-0.4h0.8c0.2,0,0.4,0.2,0.4,0.4S10.8,10.2,10.6,10.2
	z M10.6,7.9H9.8c-0.2,0-0.4-0.2-0.4-0.4c0-0.2,0.2-0.4,0.4-0.4h0.8c0.2,0,0.4,0.2,0.4,0.4C11,7.7,10.8,7.9,10.6,7.9z M7.1,7.9H5.6
	c-0.4,0-0.8,0.3-0.8,0.8v5.4c0,0.4,0.3,0.8,0.8,0.8h1.5c0.4,0,0.8-0.3,0.8-0.8V8.7C7.9,8.2,7.5,7.9,7.1,7.9z M6.7,12.3H5.9
	c-0.2,0-0.4-0.2-0.4-0.4s0.2-0.4,0.4-0.4h0.8c0.2,0,0.4,0.2,0.4,0.4S6.9,12.3,6.7,12.3z M6.7,10.2H5.9c-0.2,0-0.4-0.2-0.4-0.4
	s0.2-0.4,0.4-0.4h0.8c0.2,0,0.4,0.2,0.4,0.4S6.9,10.2,6.7,10.2z"/>
</svg>
