<svg id="图层_1" data-name="图层 1" xmlns="http://www.w3.org/2000/svg" viewBox="0 0 20 20"><defs><style>.cls-1{fill:#6ec9e1;stroke:#fff;stroke-miterlimit:10;}.cls-2{fill:#fff;}</style></defs><title>通讯-电信</title><circle class="cls-1" cx="10" cy="10" r="9.5"/><path class="cls-2" d="M12.69,5.51c.8.17,1.21.54,1.19,1.09,0,1-1.93,2.12-4,2.55.21-1.43.7-2.47,1.17-2.57a.54.54,0,0,1,.58.21h0l.49-.14c-.49-1.06-1.17-1.72-1.93-1.72C8.88,4.94,7.81,6.8,7.52,9.3c-1.07-.11-1.78-.52-1.77-1.14S6.72,6.63,8,6.09l-.14-.48C5.65,6.46,4,7.89,4,9.2s1.43,2,3.46,2.08c.14,2.88,1.3,5.13,2.69,5.13s2.33-1.86,2.63-4.36l-.84.22c-.18,1.34-.59,2.27-1,2.27s-1.07-1.49-1.15-3.4l.32-.06c3.3-.63,6-2.55,5.94-4.21,0-1.17-1.52-1.89-3.49-2l.18.66Z" transform="translate(0 0)"/></svg>