<svg id="图层_1" data-name="图层 1" xmlns="http://www.w3.org/2000/svg" viewBox="0 0 20 20"><defs><style>.cls-1{fill:#6ec9e1;stroke:#fff;stroke-miterlimit:10;}.cls-2{fill:#fff;}</style></defs><title>通讯-移动</title><circle class="cls-1" cx="10" cy="10" r="9.5"/><path class="cls-2" d="M13.15,5.34C13,5.19,11.49,3.7,10,3.73a4.06,4.06,0,0,0-2.58.93c-.2.17-2.35,2-3,2.75l.71.78s.09.12.26,0S7.77,5.9,8.6,5.3a3,3,0,0,1,1.56-.6,2.86,2.86,0,0,1,1.38.24,8.22,8.22,0,0,1,2.11,1.69A19.77,19.77,0,0,1,15.18,8.4c.3.41.6.82.82,1.17a2.26,2.26,0,0,0-.22-.91A13.88,13.88,0,0,0,13.15,5.34Z" transform="translate(0 0)"/><path class="cls-2" d="M6.88,13.09a4,4,0,0,0,1.89,1.08,2,2,0,0,0,1.71-.43c.41-.31,1.29-1.14,2-1.85s1.23-1.22,1.23-1.22l-.81-.78a.3.3,0,0,0-.4.06s-.78.76-1.44,1.37-1.26,1.16-1.49,1.33a1.68,1.68,0,0,1-2.3,0A20.85,20.85,0,0,1,3.83,8.93l-.06.28a.56.56,0,0,0,.09.45A20.08,20.08,0,0,0,6.88,13.09Z" transform="translate(0 0)"/><path class="cls-2" d="M14.32,11.56c-.17.14-2.35,2.27-3.19,2.85A2.79,2.79,0,0,1,9.57,15a2.93,2.93,0,0,1-1.38-.24,8.7,8.7,0,0,1-2.11-1.69,19.91,19.91,0,0,1-1.53-1.78c-.3-.41-.6-.82-.82-1.17a2.25,2.25,0,0,0,.22.91,13.42,13.42,0,0,0,2.64,3.3c.17.19,1.66,1.68,3.1,1.63a4,4,0,0,0,2.57-.91c.2-.19,2.35-2,3-2.77l-.71-.78S14.49,11.42,14.32,11.56Z" transform="translate(0 0)"/><path class="cls-2" d="M12.85,6.64A4.18,4.18,0,0,0,11,5.53,2.15,2.15,0,0,0,9.25,6c-.41.32-1.3,1.15-2,1.86S6,9.05,6,9.05l.81.78a.3.3,0,0,0,.4-.06S8,9,8.62,8.41s1.26-1.16,1.49-1.33a1.67,1.67,0,0,1,2.31,0A20.59,20.59,0,0,1,15.9,10.8l.06-.28a.57.57,0,0,0-.09-.45A20,20,0,0,0,12.85,6.64Z" transform="translate(0 0)"/><path class="cls-2" d="M12.55,8a1.31,1.31,0,0,0-1.83,0L7.88,10.58a.8.8,0,0,1-1.08.06A17.76,17.76,0,0,1,4.19,7.91s-.1.23-.17.36a.14.14,0,0,0,0,.17,22.84,22.84,0,0,0,3,3.2,1.26,1.26,0,0,0,1.77.21c.35-.26,2.59-2.3,3.06-2.74a.81.81,0,0,1,1,0,19.84,19.84,0,0,1,2.63,2.74s.11-.26.16-.36,0-.15,0-.15A27.18,27.18,0,0,0,12.55,8Z" transform="translate(0 0)"/></svg>