<svg id="图层_1" data-name="图层 1" xmlns="http://www.w3.org/2000/svg" viewBox="0 0 20 20"><defs><style>.cls-1{fill:#6ec9e1;stroke:#fff;stroke-miterlimit:10;}.cls-2{fill:#fff;}</style></defs><title>通讯-联通</title><circle class="cls-1" cx="10" cy="10" r="9.5"/><path class="cls-2" d="M12.59,12.37l-1.78-1.82,0-.05.14-.15,2-2.08a4.39,4.39,0,0,0,.51-.57,1.33,1.33,0,0,0,.11-1.35,2,2,0,0,0-.43-.64,1.77,1.77,0,0,0-1.38-.61,1.43,1.43,0,0,0-.9.38c-.19.18-.37.37-.55.56L10,6.33l0,0a12.24,12.24,0,0,0-.9-.88,1.38,1.38,0,0,0-1.56-.15,2.23,2.23,0,0,0-.94.88A1.4,1.4,0,0,0,6.54,7.6a2.12,2.12,0,0,0,.39.48l2.21,2.26.14.16-.17.18L7,12.79a2.43,2.43,0,0,0-.57.72,1.36,1.36,0,0,0,0,1.19A2.21,2.21,0,0,0,7.7,15.81,1.42,1.42,0,0,0,9,15.69a2.6,2.6,0,0,0,.56-.51l.48-.47c.22.21.46.41.67.63a1.68,1.68,0,0,0,.95.55,1.47,1.47,0,0,0,1.07-.24,2.32,2.32,0,0,0,.83-.9,1.44,1.44,0,0,0-.21-1.65C13.08,12.85,12.83,12.61,12.59,12.37ZM8,7.44l-.32-.32a.53.53,0,0,1,.08-.76.51.51,0,0,1,.77.09c.19.22.4.42.6.62l.1.1-.61.56.84.79L10,8l.54.57.83-.8-.58-.61.24-.24.52-.53a.45.45,0,0,1,.61-.06.52.52,0,0,1,.25.63.39.39,0,0,1-.09.17L10.1,9.42,10,9.51l-.39-.4Zm4.21,7.26a.5.5,0,0,1-.64-.08l-.76-.73.31-.33.29-.31-.84-.79L10,13l-.6-.56-.81.78.58.61-.36.38c-.12.12-.25.24-.36.37a.51.51,0,0,1-.8,0,.53.53,0,0,1,0-.72c.58-.58,1.14-1.17,1.71-1.75l.45-.47a1.61,1.61,0,0,0,.12-.16l.47.46,1.67,1.71.24.25A.54.54,0,0,1,12.21,14.7Z" transform="translate(0 0)"/><path class="cls-2" d="M16.88,9.81a1.64,1.64,0,0,0-1.61-1.23,1.85,1.85,0,0,0-1.34.49c-.21.19-.41.41-.6.6L12.6,9l-.81.78.72.75-.74.69.83.79.75-.71,0,0a3.12,3.12,0,0,0,.73.73,1.85,1.85,0,0,0,1.18.36,1.63,1.63,0,0,0,1.08-.4A2,2,0,0,0,17,10.77,2.09,2.09,0,0,0,16.88,9.81Zm-1.1,1.13a.65.65,0,0,1-.78.26,1.82,1.82,0,0,1-.77-.55c-.18-.18-.17-.16,0-.33a3.89,3.89,0,0,1,.48-.41.82.82,0,0,1,.74-.14.69.69,0,0,1,.44.72A.76.76,0,0,1,15.78,10.95Z" transform="translate(0 0)"/><path class="cls-2" d="M6.65,11.34l0-.08.72.75.86-.81-.73-.68.72-.75L7.43,9l-.72.75,0,0c-.16-.18-.3-.37-.48-.53A1.94,1.94,0,0,0,4.55,8.6a1.52,1.52,0,0,0-1.17.74,2.15,2.15,0,0,0-.19,1.92,1.7,1.7,0,0,0,2,1.12A1.84,1.84,0,0,0,6,12,2.79,2.79,0,0,0,6.65,11.34Zm-.74-.79a2.06,2.06,0,0,1-.84.65l-.26.06a.65.65,0,0,1-.65-.6A.9.9,0,0,1,4.3,10a.72.72,0,0,1,.82-.17,2.37,2.37,0,0,1,.78.63A.11.11,0,0,1,5.91,10.55Z" transform="translate(0 0)"/></svg>