<?xml version="1.0" encoding="utf-8"?>
<!-- Generator: Adobe Illustrator 21.0.0, SVG Export Plug-In . SVG Version: 6.00 Build 0)  -->
<svg version="1.1" id="图层_1" xmlns="http://www.w3.org/2000/svg" xmlns:xlink="http://www.w3.org/1999/xlink" x="0px" y="0px"
	 viewBox="0 0 20 20" style="enable-background:new 0 0 20 20;" xml:space="preserve">
<style type="text/css">
	.st0{fill:#FF473E;stroke:#FFFFFF;stroke-miterlimit:10;}
	.st1{fill:#FFFFFF;}
</style>
<title>办事大厅</title>
<circle class="st0" cx="10" cy="10" r="9.5"/>
<path class="st1" d="M10.2,6.5l0-0.1H9.9l0,0.1H9.6l0,0.2h0.8l0-0.2H10.2z M9.8,6.1L9.8,6.1L9.8,6.1l0.2,0L9.8,6.1L9.9,6L9.8,6.1
	L9.8,6L9.8,6.1L9.8,6.1L9.8,6.1z M9.9,5.7L9.9,5.9L9.9,5.7l0.2,0.2l-0.1-0.2l0.1-0.1h-0.2L10,5.5L9.9,5.6H9.8L9.9,5.7z M10.2,6.1
	L10.2,6.1L10.2,6.1L10,6.1L10.2,6.1l0,0.2L10.2,6.1l0.1,0.1L10.2,6.1L10.2,6.1L10.2,6.1z M9.5,6L9.5,6h0.1l0-0.1l0.1-0.1H9.6l0-0.1
	l0,0.1H9.5L9.5,6L9.5,6z M10.3,6L10.3,6h0.1V5.9l0.1-0.1h-0.1l0-0.1l0,0.1h-0.1L10.3,6L10.3,6z"/>
<path class="st1" d="M11.1,5.9C11,5.4,10.5,5,10,5c-0.5,0-1,0.4-1.1,1H4.6l0.1,0.7v0.1h0.1v0.1h0v1.1H5V8h0.1l0.1,0.1l-0.1,5.3H5.1
	L5,13.8H4.9v0.5H4.8V15h10.5v-0.7h-0.2v-0.5H15l-0.1-0.4h-0.1l-0.1-5.3L14.9,8h0.1V7.9h0.2V6.8h0V6.7h0.1V6.6l0.1-0.7H11.1z
	 M10.6,6.9c0,0-0.1,0.1-0.2,0.1c-0.1,0-0.2,0-0.2,0C10.2,7,10.1,7,10,7C9.9,7,9.8,7,9.7,6.9c0,0-0.1,0-0.2,0c-0.1,0-0.2-0.1-0.2-0.1
	l0-0.2C9.3,6.5,9.2,6.3,9.2,6.1c0-0.5,0.4-0.8,0.8-0.8c0.5,0,0.8,0.4,0.8,0.8c0,0.2-0.1,0.4-0.2,0.6C10.6,6.7,10.6,6.9,10.6,6.9z
	 M6.9,13.4L6.9,13.4l-0.2,0.4H6.3l-0.1-0.4H6.1L6,8.1L6.1,8h0.1V7.9h0.6V8h0.1L7,8.1C7,8.1,6.9,13.4,6.9,13.4z M8.7,13.4L8.7,13.4
	l-0.2,0.4H8l-0.1-0.4H7.8L7.7,8.1L7.8,8h0.1V7.9h0.6V8h0.1l0.1,0.1L8.7,13.4z M10.4,13.4L10.4,13.4l-0.1,0.4H9.8l-0.1-0.4H9.6
	L9.5,8.1L9.6,8h0.1V7.9h0.6V8h0.1l0.1,0.1C10.5,8.1,10.4,13.4,10.4,13.4z M12.2,13.4L12.2,13.4L12,13.8h-0.5l-0.1-0.4l-0.1-5.3
	L11.4,8h0.1V7.9h0.6V8h0.1l0.1,0.1L12.2,13.4z M13.9,13.4L13.9,13.4l-0.2,0.4h-0.5l-0.1-0.4h-0.1L13,8.1L13.1,8h0.1V7.9h0.6V8h0.1
	L14,8.1L13.9,13.4z"/>
</svg>
