<?xml version="1.0" encoding="utf-8"?>
<!-- Generator: Adobe Illustrator 21.0.0, SVG Export Plug-In . SVG Version: 6.00 Build 0)  -->
<svg version="1.1" id="图层_1" xmlns="http://www.w3.org/2000/svg" xmlns:xlink="http://www.w3.org/1999/xlink" x="0px" y="0px"
	 viewBox="0 0 20 20" style="enable-background:new 0 0 20 20;" xml:space="preserve">
<style type="text/css">
	.st0{fill:#6EC9E1;stroke:#FFFFFF;stroke-miterlimit:10;}
	.st1{fill:#FFFFFF;}
</style>
<circle class="st0" cx="10" cy="10" r="9.5"/>
<path class="st1" d="M14.6,5.5c-0.6-0.6-1.5-0.9-2.4-0.9s-1.7,0.3-2.4,0.9L5,10.3c-1.3,1.3-1.3,3.5,0,4.7C5.6,15.7,6.5,16,7.4,16
	s1.7-0.3,2.4-0.9l4.9-4.7c0.6-0.6,0.9-1.5,0.9-2.4C15.5,7,15.2,6.2,14.6,5.5z M9.4,14.7c-0.6,0.6-1.3,0.9-2,0.9s-1.5-0.3-2-0.9
	c-1.1-1.1-1.1-2.9,0-4.1l2.2-2.2l4.1,4.1L9.4,14.7z M13.9,6.6c-0.1,0.1-0.2,0.1-0.3,0C13.2,6.2,12.7,6,12.2,6c-0.6,0-1,0.2-1.3,0.6
	L9.4,8.1c-0.2,0-0.2,0.1-0.2,0.1C9.1,8.2,9,8.2,9,8.1C8.9,8.1,8.9,7.9,9,7.8l1.6-1.6c0.5-0.5,1-0.7,1.7-0.7c0.6,0,1.3,0.2,1.7,0.7
	C14,6.3,14,6.5,13.9,6.6z"/>
</svg>
