<?xml version="1.0" encoding="utf-8"?>
<!-- Generator: Adobe Illustrator 21.0.0, SVG Export Plug-In . SVG Version: 6.00 Build 0)  -->
<svg version="1.1" id="图层_1" xmlns="http://www.w3.org/2000/svg" xmlns:xlink="http://www.w3.org/1999/xlink" x="0px" y="0px"
	 viewBox="0 0 20 20" style="enable-background:new 0 0 20 20;" xml:space="preserve">
<style type="text/css">
	.st0{fill:#FF473E;stroke:#FFFFFF;stroke-miterlimit:10;}
	.st1{fill:#FFFFFF;}
</style>
<title>办事大厅</title>
<circle class="st0" cx="10" cy="10" r="9.5"/>
<path class="st1" d="M9.5,5.1H5c-0.2,0-0.4,0.2-0.4,0.4v8.6c0,0.4,0.4,0.8,0.8,0.8h3.7c0.4,0,0.8-0.4,0.8-0.8V5.5
	C9.9,5.3,9.8,5.1,9.5,5.1z M6.8,11.7c0,0.2-0.2,0.4-0.4,0.4H5.8c-0.2,0-0.4-0.2-0.4-0.4v-0.6c0-0.2,0.2-0.4,0.4-0.4h0.6
	c0.2,0,0.4,0.2,0.4,0.4V11.7z M6.8,9.5c0,0.2-0.2,0.4-0.4,0.4H5.8c-0.2,0-0.4-0.2-0.4-0.4V8.9c0-0.2,0.2-0.4,0.4-0.4h0.6
	c0.2,0,0.4,0.2,0.4,0.4V9.5z M6.8,7.3c0,0.2-0.2,0.4-0.4,0.4H5.8c-0.2,0-0.4-0.2-0.4-0.4V6.7c0-0.2,0.2-0.4,0.4-0.4h0.6
	c0.2,0,0.4,0.2,0.4,0.4V7.3z M9.1,11.7c0,0.2-0.2,0.4-0.4,0.4H8.1c-0.2,0-0.4-0.2-0.4-0.4v-0.6c0-0.2,0.2-0.4,0.4-0.4h0.6
	c0.2,0,0.4,0.2,0.4,0.4V11.7z M9.1,9.5c0,0.2-0.2,0.4-0.4,0.4H8.1c-0.2,0-0.4-0.2-0.4-0.4V8.9c0-0.2,0.2-0.4,0.4-0.4h0.6
	c0.2,0,0.4,0.2,0.4,0.4V9.5z M9.1,7.3c0,0.2-0.2,0.4-0.4,0.4H8.1c-0.2,0-0.4-0.2-0.4-0.4V6.7c0-0.2,0.2-0.4,0.4-0.4h0.6
	c0.2,0,0.4,0.2,0.4,0.4V7.3z M15.3,14.9h-0.1c-0.4,0-0.8-0.4-0.8-0.8v-1c0-0.4-0.4-0.8-0.8-0.8h-0.2c-0.4,0-0.8,0.4-0.8,0.8v1
	c0,0.4-0.4,0.8-0.8,0.8h-0.2c-0.4,0-0.8-0.4-0.8-0.8v-3.6c0-0.4,0.4-0.8,0.8-0.8h3.7c0.4,0,0.8,0.4,0.8,0.8v3.6
	C16.1,14.5,15.7,14.9,15.3,14.9z M15.6,9.2h-4.5c-0.2,0-0.4-0.2-0.4-0.4c0-0.2,0.2-0.4,0.4-0.4h4.5c0.2,0,0.4,0.2,0.4,0.4
	C16.1,9.1,15.9,9.2,15.6,9.2z"/>
</svg>
