<?xml version="1.0" encoding="utf-8"?>
<!-- Generator: Adobe Illustrator 21.0.0, SVG Export Plug-In . SVG Version: 6.00 Build 0)  -->
<svg version="1.1" id="图层_1" xmlns="http://www.w3.org/2000/svg" xmlns:xlink="http://www.w3.org/1999/xlink" x="0px" y="0px"
	 viewBox="0 0 20 20" style="enable-background:new 0 0 20 20;" xml:space="preserve">
<style type="text/css">
	.st0{fill:#FF473E;stroke:#FFFFFF;stroke-miterlimit:10;}
	.st1{fill:#FFFFFF;}
</style>
<circle class="st0" cx="10" cy="10" r="9.5"/>
<path class="st1" d="M16.1,14c0,0,0-0.1,0-0.2V7.1c0-0.3-0.2-0.5-0.5-0.5h-2.7v7.1c0,0.1,0,0.2,0,0.3h-0.3c0,0,0-0.1,0-0.2V5
	c0-0.3-0.2-0.5-0.5-0.5H7.9C7.7,4.5,7.5,4.7,7.5,5v8.8c0,0.1,0,0.1,0,0.2H7.2c0-0.1,0-0.2,0-0.3V6.6H4.5c-0.3,0-0.5,0.2-0.5,0.5v6.8
	c0,0.1,0,0.1,0,0.2H3.3v1h13.6v-1L16.1,14L16.1,14z M5.9,7.8h0.7v0.7H5.9V7.8z M5.9,9h0.7v0.7H5.9V9z M5.9,10.2h0.7v0.7H5.9V10.2z
	 M4.8,7.8h0.7v0.7H4.8V7.8z M4.8,9h0.7v0.7H4.8V9z M4.8,10.2h0.7v0.7H4.8V10.2z M4.8,11.3h0.7V12H4.8V11.3z M5.5,13.1H4.8v-0.7h0.7
	V13.1z M5.9,11.3h0.7V12H5.9V11.3z M6.6,13.1H5.9v-0.7h0.7V13.1z M11.1,14h-2v-3.7h2V14z M10,8.1c-0.9,0-1.7-0.8-1.7-1.7
	S9.1,4.7,10,4.7c0.9,0,1.7,0.8,1.7,1.7S11,8.1,10,8.1z M14.8,7.8h0.7v0.7h-0.7V7.8z M14.8,9h0.7v0.7h-0.7V9z M14.8,10.2h0.7v0.7
	h-0.7V10.2z M13.7,7.8h0.7v0.7h-0.7V7.8z M13.7,9h0.7v0.7h-0.7V9z M13.7,10.2h0.7v0.7h-0.7V10.2z M13.7,11.3h0.7V12h-0.7V11.3z
	 M14.4,13.1h-0.7v-0.7h0.7V13.1z M14.8,11.3h0.7V12h-0.7V11.3z M15.5,13.1h-0.7v-0.7h0.7V13.1z"/>
<path class="st1" d="M11.1,6v0.8h-0.6v0.6H9.6V6.9H9V6h0.6V5.4h0.8V6H11.1z"/>
</svg>
