<?xml version="1.0" encoding="utf-8"?>
<!-- Generator: Adobe Illustrator 21.0.0, SVG Export Plug-In . SVG Version: 6.00 Build 0)  -->
<svg version="1.1" id="图层_1" xmlns="http://www.w3.org/2000/svg" xmlns:xlink="http://www.w3.org/1999/xlink" x="0px" y="0px"
	 viewBox="0 0 20 20" style="enable-background:new 0 0 20 20;" xml:space="preserve">
<style type="text/css">
	.st0{fill:#6EB469;stroke:#FFFFFF;stroke-miterlimit:10;}
	.st1{fill:#FFFFFF;}
</style>
<title>办事大厅</title>
<circle class="st0" cx="10" cy="10" r="9.5"/>
<path class="st1" d="M6.1,12.9h2.8v1.8H6.1V12.9z"/>
<path class="st1" d="M8.9,14.6H6.1c0,0-0.1,0-0.1-0.1v-1.8c0,0,0-0.1,0.1-0.1h2.8c0,0,0.1,0,0.1,0.1L8.9,14.6
	C9,14.6,8.9,14.6,8.9,14.6z M6.2,14.5h2.6v-1.6H6.2V14.5z"/>
<path class="st1" d="M3.3,13.1L7.5,8l4.2,5.1H3.3z"/>
<path class="st1" d="M11.7,13.2H3.3c0,0-0.1,0-0.1,0c0,0,0-0.1,0-0.1l4.2-5.1c0,0,0,0,0.1,0c0,0,0,0,0.1,0l4.2,5.1
	C11.8,13.1,11.8,13.1,11.7,13.2C11.8,13.2,11.7,13.2,11.7,13.2z M3.5,13h8l-4-4.9L3.5,13z"/>
<path class="st1" d="M4,10.6l3.5-4.1l3.5,4.1H4z"/>
<path class="st1" d="M11,10.7H4c0,0-0.1,0-0.1,0c0,0,0-0.1,0-0.1l3.5-4.1c0,0,0,0,0.1,0c0,0,0,0,0.1,0l3.5,4.1
	C11.1,10.6,11.1,10.6,11,10.7C11.1,10.6,11.1,10.7,11,10.7z M4.1,10.5h6.7L7.5,6.6L4.1,10.5z"/>
<path class="st1" d="M4.9,8.2l2.6-3.8l2.6,3.8H4.9z"/>
<path class="st1" d="M10.1,8.3H4.9c0,0-0.1,0-0.1,0c0,0,0-0.1,0-0.1l2.6-3.8c0,0,0,0,0.1,0c0,0,0.1,0,0.1,0l2.6,3.8
	C10.2,8.2,10.2,8.2,10.1,8.3C10.2,8.3,10.2,8.3,10.1,8.3z M5,8.1H10L7.5,4.5L5,8.1z"/>
<path class="st1" d="M13.5,13h1.9v1.2h-1.9V13z"/>
<path class="st1" d="M15.3,14.3h-1.9c0,0-0.1,0-0.1-0.1V13c0,0,0-0.1,0.1-0.1h1.9c0,0,0.1,0,0.1,0.1L15.3,14.3
	C15.4,14.3,15.4,14.3,15.3,14.3z M13.5,14.2h1.8v-1.1h-1.8V14.2z"/>
<path class="st1" d="M11.6,13.1l2.8-3.4l2.8,3.4H11.6z"/>
<path class="st1" d="M17.2,13.1h-5.6c0,0,0,0,0,0s0,0,0-0.1l2.8-3.4c0,0,0,0,0,0c0,0,0,0,0,0L17.2,13.1
	C17.3,13.1,17.3,13.1,17.2,13.1C17.2,13.1,17.2,13.1,17.2,13.1z M11.7,13h5.4l-2.7-3.3L11.7,13z"/>
<path class="st1" d="M12.1,11.4l2.4-2.7l2.4,2.7H12.1z"/>
<path class="st1" d="M16.8,11.5h-4.7c0,0,0,0,0,0c0,0,0,0,0-0.1l2.4-2.7c0,0,0,0,0,0c0,0,0,0,0,0L16.8,11.5
	C16.8,11.4,16.8,11.4,16.8,11.5C16.8,11.4,16.8,11.5,16.8,11.5z M12.2,11.3h4.5l-2.2-2.6L12.2,11.3z"/>
<path class="st1" d="M12.7,9.8l1.7-2.5l1.7,2.5H12.7z"/>
<path class="st1" d="M16.2,9.9h-3.5c0,0,0,0,0,0c0,0,0,0,0-0.1l1.7-2.5c0,0,0,0,0,0c0,0,0,0,0,0L16.2,9.9
	C16.2,9.8,16.2,9.8,16.2,9.9C16.2,9.8,16.2,9.9,16.2,9.9z M12.8,9.7h3.3l-1.6-2.4L12.8,9.7z"/>
</svg>
