<svg id="图层_1" data-name="图层 1" xmlns="http://www.w3.org/2000/svg" viewBox="0 0 20 20"><defs><style>.cls-1{fill:#ff473e;stroke:#fff;stroke-miterlimit:10;}.cls-2{fill:#fff;}</style></defs><title>办事大厅</title><circle class="cls-1" cx="10" cy="10" r="9.5"/><path class="cls-2" d="M7,6.5h6.19l-.28-.44H7.38Zm7.69.95H13.22V6.77H6.88v.67H5.49a.86.86,0,0,0-.86.86v5.2h-.4a.41.41,0,0,0-.4.42v.42h12.5v-.42a.41.41,0,0,0-.4-.42h-.4V8.3h0a.86.86,0,0,0-.86-.86h0Zm-.91.66h.87V9h-.87Zm0,1.46h.87v.87h-.87Zm0,1.46h.87v.87h-.87Zm-1-2.93h.87V9H12.8Zm0,1.46h.87v.87H12.8Zm0,1.46h.87v.87H12.8ZM10.63,8.1h.87V9h-.87Zm0,1.46h.87v.87h-.87Zm0,1.46h.87v.87h-.87Zm-1-2.93h.87V9H9.62Zm0,1.46h.87v.87H9.62Zm0,1.46h.87v.87H9.62Zm-1-2.93h.87V9H8.61Zm0,1.46h.87v.87H8.61Zm0,1.46h.87v.87H8.61ZM6.52,8.1h.87V9H6.52Zm0,1.46h.87v.87H6.52Zm0,1.46h.87v.87H6.52Zm-1-2.93h.87V9H5.55Zm0,1.46h.87v.87H5.55Zm0,1.46h.87v.87H5.55Z" transform="translate(0 0)"/></svg>