<svg id="图层_1" data-name="图层 1" xmlns="http://www.w3.org/2000/svg" viewBox="0 0 20 20"><defs><style>.cls-1{fill:#6ec9e1;stroke:#fff;stroke-miterlimit:10;}.cls-2{fill:#fff;}</style></defs><title>水电煤气供暖缴费网点</title><circle class="cls-1" cx="10" cy="10" r="9.5"/><path class="cls-2" d="M16,9.53a1.5,1.5,0,1,1-3,0h0a1.5,1.5,0,1,1-3,0h0a1.5,1.5,0,1,1-3,0H7a1.5,1.5,0,0,1-3,0H4L5.06,6.69H15l1,2.84ZM14.12,6.12H5.88a.58.58,0,0,1-.57-.57A.55.55,0,0,1,5.88,5h8.24a.58.58,0,0,1,.57.57.55.55,0,0,1-.57.55ZM5.69,11.57h0a.35.35,0,0,0,.16,0h0a.1.1,0,0,0,.08,0l.3-.08h0v2.78h7.5V11.44h0l.3.08a.1.1,0,0,1,.08,0h0l.16,0h.19a1.8,1.8,0,0,0,.38,0v3.79a.58.58,0,0,1-.57.57H5.69a.58.58,0,0,1-.57-.57V11.55a1.68,1.68,0,0,0,.38,0Z" transform="translate(0 0)"/></svg>