<?xml version="1.0" encoding="utf-8"?>
<!-- Generator: Adobe Illustrator 21.0.0, SVG Export Plug-In . SVG Version: 6.00 Build 0)  -->
<svg version="1.1" id="图层_1" xmlns="http://www.w3.org/2000/svg" xmlns:xlink="http://www.w3.org/1999/xlink" x="0px" y="0px"
	 viewBox="0 0 20 20" style="enable-background:new 0 0 20 20;" xml:space="preserve">
<style type="text/css">
	.st0{fill:#05AFFD;stroke:#FFFFFF;stroke-miterlimit:10;}
	.st1{fill:#FFFFFF;}
</style>
<title>办事大厅</title>
<circle class="st0" cx="10" cy="10" r="9.5"/>
<path class="st1" d="M7.6,13.8H4.4c-0.2,0-0.4,0.2-0.4,0.4v0.3H8v-0.3C8,14,7.8,13.8,7.6,13.8"/>
<path class="st1" d="M9.2,9.2l0.5-0.6H8.2L7.7,9.2H9.2z"/>
<path class="st1" d="M9.3,7.3L8.7,8h1.6l0.5-0.6H9.3z"/>
<path class="st1" d="M12.4,5.5l-0.9-0.8l-0.7,0.8H12.4z"/>
<path class="st1" d="M8.7,9.8H7.6V5.9c0-0.2-0.1-0.3-0.3-0.3H4.6c-0.2,0-0.3,0.1-0.3,0.3v7.2c0,0.2,0.1,0.3,0.3,0.3h2.8
	c0.2,0,0.3-0.1,0.3-0.3V11L8.7,9.8z M5,9.1V6.7c0-0.3,0.2-0.5,0.6-0.5h0.9C6.8,6.2,7,6.4,7,6.7v2.4c0,0.3-0.2,0.5-0.5,0.5H5.5
	C5.2,9.7,5,9.4,5,9.1"/>
<path class="st1" d="M10.3,6.1L9.8,6.8h1.6l0.5-0.6H10.3z"/>
<path class="st1" d="M16.2,10.7H16l-0.8-2c0-0.1-0.1-0.2-0.2-0.2h-1.9h-0.3h-1.9c-0.1,0-0.2,0.1-0.2,0.2l-0.8,2H9.6
	c-0.3,0-0.5,0.3-0.5,0.6v2.2h0.5v0.7c0,0.2,0.2,0.4,0.4,0.4h0.3c0.2,0,0.4-0.2,0.4-0.4v-0.7H15v0.7c0,0.2,0.2,0.4,0.4,0.4h0.3
	c0.2,0,0.4-0.2,0.4-0.4v-0.7h0.5v-2.2C16.7,10.9,16.5,10.7,16.2,10.7 M11,9.1h1.8h0.3h1.8l0.7,1.6h-5.2L11,9.1z M10.4,12.6
	c-0.3,0-0.5-0.2-0.5-0.5c0-0.3,0.2-0.5,0.5-0.5c0.3,0,0.5,0.2,0.5,0.5C10.9,12.3,10.7,12.6,10.4,12.6 M15.4,12.6
	c-0.3,0-0.6-0.2-0.6-0.5c0-0.3,0.2-0.5,0.6-0.5c0.3,0,0.5,0.2,0.5,0.5C16,12.3,15.7,12.6,15.4,12.6"/>
</svg>
