<?xml version="1.0" encoding="utf-8"?>
<!-- Generator: Adobe Illustrator 21.0.0, SVG Export Plug-In . SVG Version: 6.00 Build 0)  -->
<svg version="1.1" id="图层_1" xmlns="http://www.w3.org/2000/svg" xmlns:xlink="http://www.w3.org/1999/xlink" x="0px" y="0px"
	 viewBox="0 0 20 20" style="enable-background:new 0 0 20 20;" xml:space="preserve">
<style type="text/css">
	.st0{fill:#6EC9E1;stroke:#FFFFFF;stroke-miterlimit:10;}
	.st1{fill:#FFFFFF;}
</style>
<circle class="st0" cx="10" cy="10" r="9.5"/>
<path class="st1" d="M12.6,16.9l-1.7-0.4l-0.4-3l0,0l-0.2,2.9L8,15.8l0.5-2.2l0,0l-1.1,2l-1.1-0.3l0.2-0.9l0-0.1l0,0l0,0.1l-0.4,0.9
	l-1.9-0.5c-0.1,0-0.2-0.2-0.2-0.3l0,0c0,0,4.5-2.8,4.9-4.7l1.8,0.4c0,0,0,0,0,0c-0.5,1.9,2.1,6.4,2.1,6.4
	C12.9,16.9,12.7,16.9,12.6,16.9L12.6,16.9z M9.3,9.7l1.3,0.3c0.1,0,0.1,0.1,0.1,0.1c0,0-0.1,0.1-0.1,0.1c0,0,0,0,0,0L9.3,9.9
	c-0.1,0-0.1-0.1-0.1-0.1S9.3,9.7,9.3,9.7C9.3,9.7,9.3,9.7,9.3,9.7z M10.7,10L9.3,9.7c0,0,0,0,0,0l-0.1-1c0-0.2,0.2-0.2,0.4-0.2l0,0
	L10,8.6l1.3-5.5c0-0.1,0.2-0.2,0.3-0.2l0.1,0C11.9,3,12,3.1,12,3.3v0l-1.3,5.5L11,8.8c0.2,0,0.3,0.2,0.2,0.4l0,0L10.7,10
	C10.7,10,10.7,10,10.7,10z"/>
</svg>
