<?xml version="1.0" encoding="utf-8"?>
<!-- Generator: Adobe Illustrator 21.0.0, SVG Export Plug-In . SVG Version: 6.00 Build 0)  -->
<svg version="1.1" id="图层_1" xmlns="http://www.w3.org/2000/svg" xmlns:xlink="http://www.w3.org/1999/xlink" x="0px" y="0px"
	 viewBox="0 0 20 20" style="enable-background:new 0 0 20 20;" xml:space="preserve">
<style type="text/css">
	.st0{fill:#FF473E;stroke:#FFFFFF;stroke-miterlimit:10;}
	.st1{fill:#FFFFFF;}
</style>
<title>办事大厅</title>
<circle class="st0" cx="10" cy="10" r="9.5"/>
<path class="st1" d="M5,12.2l-0.3-1.1c1.4-1.2,2.4-2.3,2.9-3.4H4.9v-1h1.6C6.3,6.2,6.1,5.8,5.9,5.4l1-0.3c0.2,0.5,0.4,1,0.5,1.5h1.2
	v0.9C8.3,8.3,7.9,9.1,7.3,9.8c0.6,0.4,1.2,0.7,1.7,1.2L8.4,12c-0.4-0.4-0.8-0.7-1.2-1v4.4h-1V11C5.9,11.4,5.4,11.8,5,12.2z
	 M12.1,5.3v3.1h2.4v1h-2.4V14h2.7v1H8.2v-1H11V9.5H8.6v-1H11V5.3C11,5.3,12.1,5.3,12.1,5.3z"/>
</svg>
