<?xml version="1.0" encoding="utf-8"?>
<!-- Generator: Adobe Illustrator 21.0.0, SVG Export Plug-In . SVG Version: 6.00 Build 0)  -->
<svg version="1.1" id="图层_1" xmlns="http://www.w3.org/2000/svg" xmlns:xlink="http://www.w3.org/1999/xlink" x="0px" y="0px"
	 viewBox="0 0 20 20" style="enable-background:new 0 0 20 20;" xml:space="preserve">
<style type="text/css">
	.st0{fill:#6EC9E1;stroke:#FFFFFF;stroke-miterlimit:10;}
	.st1{fill:#FFFFFF;}
</style>
<title>办事大厅</title>
<circle class="st0" cx="10" cy="10" r="9.5"/>
<path class="st1" d="M13.9,15.1V6c0-0.1-0.1-0.2-0.2-0.2h-2.2V4.3c0-0.1-0.1-0.2-0.2-0.2H6.3c-0.1,0-0.2,0.1-0.2,0.2v10.8H5.3v0.8
	h9.5v-0.8H13.9z M8.4,13.4H7.6v-0.8h0.8V13.4z M8.4,11.7H7.6v-0.8h0.8V11.7z M8.4,10H7.6V9.2h0.8V10z M8.4,8.3H7.6V7.5h0.8V8.3z
	 M8.4,6.6H7.6V5.8h0.8V6.6z M10,13.4H9.2v-0.8H10V13.4z M10,11.7H9.2v-0.8H10V11.7z M10,10H9.2V9.2H10V10z M10,8.3H9.2V7.5H10V8.3z
	 M10,6.6H9.2V5.8H10V6.6z M12.4,13.4h-0.8v-0.8h0.8V13.4z M12.4,11.7h-0.8v-0.8h0.8V11.7z M12.4,10h-0.8V9.2h0.8V10z M12.4,8.3h-0.8
	V7.5h0.8V8.3z"/>
</svg>
