<?xml version="1.0" encoding="utf-8"?>
<!-- Generator: Adobe Illustrator 21.0.0, SVG Export Plug-In . SVG Version: 6.00 Build 0)  -->
<svg version="1.1" id="图层_1" xmlns="http://www.w3.org/2000/svg" xmlns:xlink="http://www.w3.org/1999/xlink" x="0px" y="0px"
	 viewBox="0 0 20 20" style="enable-background:new 0 0 20 20;" xml:space="preserve">
<style type="text/css">
	.st0{fill:#6EC9E1;stroke:#FFFFFF;stroke-miterlimit:10;}
	.st1{fill:#FFFFFF;}
</style>
<circle class="st0" cx="10" cy="10" r="9.5"/>
<path class="st1" d="M9.5,13.7c0-0.3-0.2-0.5-0.5-0.5H5.4c-0.3,0-0.5,0.2-0.5,0.5C5,13.8,5,13.9,5,14H4.4v1h5.7v-1H9.4
	C9.5,13.9,9.5,13.8,9.5,13.7z M8.9,5.7l3,1.9c0.2,0.1,0.5,0,0.7-0.2l0.1-0.2c0.2-0.2,0.1-0.6-0.2-0.7L9.6,4.6
	C9.4,4.5,9.1,4.5,8.9,4.8L8.8,5C8.6,5.2,8.7,5.5,8.9,5.7z M17,13L17,13L17,13c0-0.1,0-0.1,0-0.2c0-0.1,0-0.2-0.1-0.3
	c-0.1-0.2-0.1-0.3-0.3-0.4c0,0-0.1,0-0.1-0.1L16.5,12c-0.1,0-0.1-0.1-0.2-0.1c-0.1,0-0.1-0.1-0.2-0.1c-0.1,0-0.1-0.1-0.2-0.1
	c-0.1-0.1-0.2-0.2-0.3-0.2l-0.2-0.1l-0.2-0.1c-0.1-0.1-0.2-0.1-0.4-0.2c-0.1-0.1-0.2-0.1-0.4-0.2l-0.4-0.2l-0.4-0.2l-0.4-0.2
	l-0.4-0.2l-0.4-0.2l-0.4-0.2c-0.1-0.1-0.2-0.1-0.4-0.2c-0.1-0.1-0.2-0.1-0.4-0.2l-0.1,0.2L11,9l0.6-1l-3-1.9L7,8.6l3,1.9l0.6-1
	l0.5,0.4L11,10.1c0.1,0.1,0.2,0.2,0.3,0.3c0.1,0.1,0.2,0.2,0.3,0.3l0.3,0.2l0.3,0.2l0.3,0.2l0.3,0.2l0.3,0.2l0.3,0.2
	c0.1,0.1,0.2,0.2,0.3,0.2c0.1,0.1,0.2,0.2,0.4,0.2l0.2,0.1l0.2,0.1c0.1,0.1,0.2,0.1,0.4,0.2c0.1,0,0.1,0.1,0.2,0.1
	c0.1,0,0.1,0.1,0.2,0.1c0.1,0,0.1,0.1,0.2,0.1l0.1,0c0,0,0.1,0,0.1,0c0.1,0.1,0.3,0.1,0.5,0.1c0.1,0,0.2,0,0.3-0.1c0,0,0.1,0,0.1,0
	l0,0l0,0c0.1,0,0.1-0.1,0.2-0.1C17,13.1,17,13,17,13L17,13z M6.1,10.1L9,12c0.2,0.2,0.6,0.1,0.7-0.2l0.1-0.2
	c0.1-0.2,0.1-0.5-0.1-0.7L6.8,9C6.5,8.9,6.2,9,6.1,9.2L5.9,9.4C5.8,9.7,5.9,10,6.1,10.1z"/>
</svg>
