<?xml version="1.0" encoding="utf-8"?>
<!-- Generator: Adobe Illustrator 21.0.0, SVG Export Plug-In . SVG Version: 6.00 Build 0)  -->
<svg version="1.1" id="图层_1" xmlns="http://www.w3.org/2000/svg" xmlns:xlink="http://www.w3.org/1999/xlink" x="0px" y="0px"
	 viewBox="0 0 20 20" style="enable-background:new 0 0 20 20;" xml:space="preserve">
<style type="text/css">
	.st0{fill:#FF473E;stroke:#FFFFFF;stroke-miterlimit:10;}
	.st1{fill:#FFFFFF;}
</style>
<title>办事大厅</title>
<circle class="st0" cx="10" cy="10" r="9.5"/>
<path class="st1" d="M14.2,11.5H5v0.8h0c0,0.2,0.1,0.4,0.2,0.5c1.1,1.2,2.9,1.9,4.8,1.9s3.7-0.7,4.8-1.9c0.1-0.2,0.2-0.4,0.2-0.5h0
	v-0.8L14.2,11.5L14.2,11.5z M16.6,7.9c-0.1-0.3-0.3-0.5-0.6-0.5l-5.8-1.7c-0.2,0-0.3,0-0.5,0L3.9,7.4C3.7,7.4,3.4,7.6,3.4,7.9
	c-0.1,0.3,0,0.5,0.1,0.8l1.3,1.7c0.2,0.2,0.4,0.3,0.7,0.3h9.2c0.3,0,0.5-0.1,0.7-0.3l1.3-1.7C16.7,8.4,16.7,8.1,16.6,7.9z M11.3,8.5
	c0,0.7-1.3,1.3-1.3,1.3S8.7,9.3,8.7,8.5V7c0,0,0.2,0,0.6,0C9.6,6.9,10,6.6,10,6.6s0.1,0.2,0.8,0.4c0.4,0.1,0.5,0,0.5,0
	S11.3,7.8,11.3,8.5z"/>
</svg>
