<svg id="图层_1" data-name="图层 1" xmlns="http://www.w3.org/2000/svg" viewBox="0 0 20 20"><defs><style>.cls-1{fill:#6ec9e1;stroke:#fff;stroke-miterlimit:10;}.cls-2{fill:#fff;}</style></defs><title>物流快递</title><circle class="cls-1" cx="10" cy="10" r="9.5"/><path class="cls-2" d="M8.15,14.39A1.15,1.15,0,1,1,7,13.24,1.15,1.15,0,0,1,8.15,14.39Zm6.46,0a1.15,1.15,0,1,1-1.15-1.15A1.15,1.15,0,0,1,14.62,14.39Zm1-3.93-1-1.84c-.21-.25-.35-.46-.69-.46H12.31V6.78a.46.46,0,0,0-.46-.46H4.46A.46.46,0,0,0,4,6.78V13.7a.46.46,0,0,0,.46.46h.92a1.63,1.63,0,0,1,3.24,0h3.23a1.63,1.63,0,0,1,3.24,0h.46A.46.46,0,0,0,16,13.7V11.39A2,2,0,0,0,15.65,10.46Zm-2.88.93V9.08H13.9c.07,0,.18.11.18.11L15,11a.85.85,0,0,1,.18.39Z" transform="translate(0 0)"/></svg>