<svg id="图层_1" data-name="图层 1" xmlns="http://www.w3.org/2000/svg" viewBox="0 0 20 20"><defs><style>.cls-1{fill:#6ec9e1;stroke:#fff;stroke-miterlimit:10;}.cls-2{fill:#fff;}</style></defs><title>彩票销售点</title><circle class="cls-1" cx="10" cy="10" r="9.5"/><path class="cls-2" d="M5.65,9.61c.14,0,1-.39,1.19-.43a5.9,5.9,0,0,1-1-1.64c-.47.11-1.29.33-1.29.33S5.59,9.51,5.65,9.61ZM10.89,11l1,1a13.89,13.89,0,0,0,3.88-2.55l-1.11-1A8.55,8.55,0,0,1,10.89,11Zm-2-2,.9.43a9.74,9.74,0,0,0,1.54-2L9.93,7A11.4,11.4,0,0,1,8.89,9ZM12,9.4a13.89,13.89,0,0,0,3.31-2.81l-1.1-.95a11.15,11.15,0,0,1-3.1,2.87Zm-.66,3.16L8.76,11.32h2.53V9.95H8.65V9.32H6.92v.63H4.05v1.37H6.23a6,6,0,0,1-2.18,1.82l.88,1.2a8.42,8.42,0,0,0,2-1.76V15H8.65V12.58l1.89,1Zm3.57-1.49s-1.2,2-4.78,2.87L10.65,15A10.12,10.12,0,0,0,16,12.2ZM7.35,9H8.62c-.12-.61-.15-.87-.25-1.63l-1.53.22A5.09,5.09,0,0,1,7.35,9ZM11.22,6.4,10.79,5s-1,.86-6.5,1l.07,1.15C10.82,7.23,11.22,6.4,11.22,6.4Z" transform="translate(0 0)"/></svg>