<?xml version="1.0" encoding="utf-8"?>
<!-- Generator: Adobe Illustrator 21.0.0, SVG Export Plug-In . SVG Version: 6.00 Build 0)  -->
<svg version="1.1" id="图层_1" xmlns="http://www.w3.org/2000/svg" xmlns:xlink="http://www.w3.org/1999/xlink" x="0px" y="0px"
	 viewBox="0 0 20 20" style="enable-background:new 0 0 20 20;" xml:space="preserve">
<style type="text/css">
	.st0{fill:#A17DFD;stroke:#FFFFFF;stroke-miterlimit:10;}
	.st1{fill:#FFFFFF;}
</style>
<title>办事大厅</title>
<circle class="st0" cx="10" cy="10" r="9.5"/>
<path class="st1" d="M15,6.4c0-0.5-0.4-0.8-0.8-0.8h-8c-0.5,0-0.8,0.4-0.8,0.8l-0.4,8.4c0,0.5,0.4,0.8,0.8,0.8h8.8
	c0.5,0,0.8-0.4,0.8-0.8L15,6.4L15,6.4z M10.2,11.4C8.4,11.4,7,10,7,8.2C7,8.2,7,8.1,7,8h0c0-0.2,0.2-0.4,0.4-0.4
	c0.2,0,0.4,0.2,0.4,0.4h0c0,0.1,0,0.2,0,0.2c0,1.3,1,2.3,2.3,2.3c1.3,0,2.3-1,2.3-2.3c0,0,0-0.1,0-0.1c0,0,0,0,0-0.1c0,0,0,0,0,0h0
	c0-0.2,0.2-0.4,0.4-0.4c0.2,0,0.4,0.2,0.4,0.4h0c0,0,0,0,0,0c0,0.1,0,0.1,0,0.2C13.3,10,11.9,11.4,10.2,11.4L10.2,11.4z"/>
</svg>
