<?xml version="1.0" encoding="utf-8"?>
<!-- Generator: Adobe Illustrator 21.0.0, SVG Export Plug-In . SVG Version: 6.00 Build 0)  -->
<svg version="1.1" id="图层_1" xmlns="http://www.w3.org/2000/svg" xmlns:xlink="http://www.w3.org/1999/xlink" x="0px" y="0px"
	 viewBox="0 0 20 20" style="enable-background:new 0 0 20 20;" xml:space="preserve">
<style type="text/css">
	.st0{fill:#6EC9E1;stroke:#FFFFFF;stroke-miterlimit:10;}
	.st1{fill:#FFFFFF;}
</style>
<title>办事大厅</title>
<circle class="st0" cx="10" cy="10" r="9.5"/>
<path class="st1" d="M16.4,12L16.4,12L16.4,12l-0.1-0.3l0.1,0l-0.2-1.1l-0.2,0l0-0.2l0.2,0l-0.1-0.6l-0.1,0l-0.1-0.7H16l-0.2-0.8
	l-0.4-0.1l0.1,1h-0.1l0-0.2l-0.2-0.1l-0.1-0.7l-1.7-0.3l0.1,0.8h-0.2l-0.1-0.8l-1.2-0.2l0.1,0.8l-0.2,0l-0.1-0.9L9.7,7l0,1.3H9.5
	l0-1.4L8.8,6.9l0,1.4L8,8.2L8,8l0.5,0.1l0-1.3L6.9,6.5V7l0.3,0.1l0,0.5L6.7,7.5l0-1l-0.3,0l-0.1,1L6,7.4l0.1-1L5.2,6.2L4.6,9.6
	L4.4,12H2.8v0.9H18V12L16.4,12L16.4,12z M15.3,9.8h0.1l0.1,1.1L16,11l0,0.2l-0.6,0l0.1,0.6h-0.3l-0.1-0.9h0.3L15.3,9.8z M14.5,8.8
	l-0.2,0l-0.1-0.6l0.3,0.1L14.7,9l0.5,0.1v0.2l-0.5,0l0.1,0.8l-0.5,0l0-0.5l0.4,0.1L14.5,8.8z M13.6,10l0.9,0.1l0.2,1.6l-0.3,0
	l-0.2-1.4l-0.6-0.1L13.6,10L13.6,10z M12.7,8.1l0.4,0.1l0.2,1.9l-0.1,0l-0.1-1L12.2,9l0-0.2l0.5,0.1L12.7,8.1z M12.3,9.6l0.2-0.1
	l0.1,0.6l-0.9,0l0-0.5L12.3,9.6z M10.8,8.5l0.1,1.6l0.6,0l0.2-0.1l0.1,0.7l-0.3,0.1l0,0.1l0.1,0l0,0.7l-0.9,0l-0.1-1.8L10,9.8
	L10,8.4L10.8,8.5z M9.9,10.6l0,1.3l-0.2,0l0-1l-0.3,0l0-0.3L9.9,10.6z M8.1,10.3h0.3l0-1.2h0.2l0,0.7l0.6,0.1v0.2H8.7l0,1.4l-0.4,0
	L8.1,10.3l-0.7,0l0-0.1L8.1,10.3z M6.1,7.9L7,8v0.1l0.5,0.1l0,0.8l0.3,0v0.1l-0.3,0l0,0.5l-1-0.1V9.4l0.4,0l0.1-1.2L6.1,8.1L6.1,7.9
	z M6.4,9.5l0,0.4l-0.1,0l0-0.4L6.4,9.5z M6,10.5l0.6,0l0,1.1l-0.2,0l0-1l-0.4,0L6,10.5z M5.2,6.5L5.1,7.5l0,0L5.1,8.5l0,0l0.1-1.1
	l0,0L5.2,6.5L5.2,6.5z M5.1,7.1c0,0,0-0.1,0-0.1c0,0,0,0,0,0c0,0,0,0,0,0c0,0.1,0,0.7,0,0.7L5,7.9L5.1,7.1z M5,9L5.8,9v0.3L5,9.2
	L5,9.4l0-0.3L5,9z M4.8,8.8l0-0.1L4.8,8.8L4.8,8.8l0,0.2l0,0.1L4.8,8.8z M4.8,8.9l0-0.1l0,0L5,7.6l0,0L4.9,8.8L4.8,8.9l0,1.2l0,0.1
	L4.8,8.9z M4.9,9.8l-0.1,0.3l0,0.7l0,0l0-0.9l0.1-0.3L4.9,9.8z M4.9,10.2l0,0.8h0L4.9,10.2L4.9,10.2z M4.7,10.1L4.7,10.1L4.7,10
	l0,0.5l0,0.1l0,0L4.7,10.1L4.7,10.1z M4.7,10.4v0.2l-0.1,0.2v-0.2L4.7,10.4z M4.6,9.8l0-0.5l0-0.1l0,0l0,0.1L4.6,9.8L4.6,9.8
	L4.6,9.8L4.6,9.8z M13.2,10.8l0.3,0l0,0.2l0.2,0l0,0.1l-0.2,0l0,0.6l-0.2,0.1l0,0.2h-0.1L13.2,10.8z"/>
</svg>
