<?xml version="1.0" encoding="utf-8"?>
<!-- Generator: Adobe Illustrator 21.0.0, SVG Export Plug-In . SVG Version: 6.00 Build 0)  -->
<svg version="1.1" id="图层_1" xmlns="http://www.w3.org/2000/svg" xmlns:xlink="http://www.w3.org/1999/xlink" x="0px" y="0px"
	 viewBox="0 0 20 20" style="enable-background:new 0 0 20 20;" xml:space="preserve">
<style type="text/css">
	.st0{fill:#FF473E;stroke:#FFFFFF;stroke-miterlimit:10;}
	.st1{fill:#FFFFFF;}
</style>
<title>办事大厅</title>
<circle class="st0" cx="10" cy="10" r="9.5"/>
<path class="st1" d="M15.1,13.3h-0.3l0-4.7c0-0.3-0.2-0.5-0.5-0.5h-2.3V5c0-0.3-0.2-0.5-0.5-0.5H6.3C6,4.5,5.8,4.8,5.8,5v8.3H5.7
	c-0.3,0-0.5,0.2-0.5,0.5v0.7c0,0.3,0.2,0.5,0.5,0.5h9.4c0.3,0,0.5-0.2,0.5-0.5v-0.7C15.6,13.6,15.3,13.3,15.1,13.3L15.1,13.3z
	 M10.4,11.5c0,0.3-0.2,0.5-0.5,0.5H7.8c-0.3,0-0.5-0.2-0.5-0.5v-0.2c0-0.3,0.2-0.5,0.5-0.5h2.1c0.3,0,0.5,0.2,0.5,0.5V11.5
	L10.4,11.5z M10.4,9.2c0,0.3-0.2,0.5-0.5,0.5H7.8c-0.3,0-0.5-0.2-0.5-0.5V9.1c0-0.3,0.2-0.5,0.5-0.5h2.1c0.3,0,0.5,0.2,0.5,0.5V9.2
	L10.4,9.2z M10.4,6.8c0,0.3-0.2,0.5-0.5,0.5H7.8c-0.3,0-0.5-0.2-0.5-0.5V6.6c0-0.3,0.2-0.5,0.5-0.5h2.1c0.3,0,0.5,0.2,0.5,0.5V6.8
	L10.4,6.8z M13.7,12.4h-1.4c-0.2,0-0.4-0.2-0.4-0.4c0-0.2,0.2-0.4,0.4-0.4h1.4c0.2,0,0.4,0.2,0.4,0.4C14.2,12.2,14,12.4,13.7,12.4
	L13.7,12.4z M13.7,10.7h-1.4c-0.2,0-0.4-0.2-0.4-0.4c0-0.2,0.2-0.4,0.4-0.4h1.4c0.2,0,0.4,0.2,0.4,0.4C14.2,10.5,14,10.7,13.7,10.7
	L13.7,10.7z"/>
</svg>
