<?xml version="1.0" encoding="utf-8"?>
<!-- Generator: Adobe Illustrator 21.0.0, SVG Export Plug-In . SVG Version: 6.00 Build 0)  -->
<svg version="1.1" id="图层_1" xmlns="http://www.w3.org/2000/svg" xmlns:xlink="http://www.w3.org/1999/xlink" x="0px" y="0px"
	 viewBox="0 0 20 20" style="enable-background:new 0 0 20 20;" xml:space="preserve">
<style type="text/css">
	.st0{fill:#FF473E;stroke:#FFFFFF;stroke-miterlimit:10;}
	.st1{fill:#FFFFFF;}
</style>
<title>办事大厅</title>
<circle class="st0" cx="10" cy="10" r="9.5"/>
<path class="st1" d="M13.2,5.1L13.2,5.1C13.1,5,13,4.9,13,4.9c-0.8-0.5-1.6-0.3-2.4,0.5L9.1,6.8C9,6.8,8.9,6.9,8.8,6.9
	c-0.1,0-0.2,0-0.3-0.1C8.5,6.7,8.5,6.6,8.5,6.5s0-0.2,0.1-0.2L10,4.8C9.7,4.6,9.3,4.5,8.8,4.5c-0.6,0-1.1,0.2-1.5,0.6
	C7,5.5,6.8,6,6.8,6.5C6.8,7.1,7,7.6,7.4,8l2.9,2.9c0,0,0,0,0,0c0,0,0,0,0,0L13.2,8C14,7.2,14,5.9,13.2,5.1z M3.9,13.6
	c0,0,3.5-1.9,4.1-2.1c0.6-0.2,1.6-0.4,2.7,0.4s2.5,0.4,2.7,0.4c0.2,0,0.3,0.2,0.3,0.3c0,0.2-0.2,0.4-0.6,0.5c-1.1,0.3-2-0.1-2.5-0.2
	c-0.1,0-0.2,0.4,0.3,0.5c0.5,0.2,2.3,0.6,4.1-0.7c1.2-0.9,1.8,0,1.5,0.4c-0.7,0.8-2.8,2.2-4.6,2.1c-2-0.1-3.1-0.6-3.7-0.6
	c-0.5,0-2.6,0.3-3,0.3C4.8,14.9,3.7,13.9,3.9,13.6z"/>
</svg>
