<svg id="图层_1" data-name="图层 1" xmlns="http://www.w3.org/2000/svg" viewBox="0 0 20 20"><defs><style>.cls-1{fill:#ff473e;stroke:#fff;stroke-miterlimit:10;}.cls-2{fill:#fff;}</style></defs><title>政党机关</title><circle class="cls-1" cx="10" cy="10" r="9.5"/><path class="cls-2" d="M13.35,10.14a.4.4,0,0,0-.5-.42h0a3,3,0,0,0-.93-1.65,5.06,5.06,0,0,0-1.67-.76h0V6.23l.12,0,.27-.11.3-.09.21,0a1.52,1.52,0,0,1,.34,0l.43.12.42.12a1.29,1.29,0,0,0,.32,0,2.14,2.14,0,0,0,.45-.07V4.35a1.51,1.51,0,0,1-.45.1,1.22,1.22,0,0,1-.32,0l-.42-.12-.41-.11a1.16,1.16,0,0,0-.3,0,2.07,2.07,0,0,0-.95.22V4H9.77V7.3h0a5.12,5.12,0,0,0-1.67.78,3,3,0,0,0-.93,1.62.39.39,0,0,0-.46.45m0,0h6.65M15,11.22v4.59H11.43v-1H8.34v1H5V11.22Z" transform="translate(0 0)"/><rect class="cls-2" x="5" y="10.48" width="10" height="4.19"/></svg>