<svg id="图层_1" data-name="图层 1" xmlns="http://www.w3.org/2000/svg" viewBox="0 0 20 20"><defs><style>.cls-1{fill:#6ec9e1;stroke:#fff;stroke-miterlimit:10;}.cls-2{fill:#fff;}</style></defs><title>邮政</title><circle class="cls-1" cx="10" cy="10" r="9.5"/><path class="cls-2" d="M10.77,4.67s-.18.89-.26,1.36a1.89,1.89,0,0,1-.05.25l0,.05H7.56l0,.2c-.24,1.27-.65,3.21-.68,3.25a10.37,10.37,0,0,1-1.42,0L4,9.83l-.18.82c-.31,1.4-.44,2-.43,2H4.79c1.27,0,1.38,0,1.39,0s-.06.38-.14.81l-.32,1.59-.17.83h6.07l0-.18.09-.42.2-.89.41-1.84,0-.08h1.88L14.4,12l.15-.54v-.05H12l-.12.52-.34,1.49-.27,1.18,0,.21H6.59v0s0-.14,0-.24l0-.2h4l.06-.29L11,12.94c.1-.44.24-1.07.31-1.41s.14-.62.14-.63.71,0,1.6,0h1.59l.14-.51c.08-.27.14-.51.14-.52s-.56,0-1.94,0a9.29,9.29,0,0,0-2,0s-.06.26-.12.54l-.24,1c-.07.3-.14.62-.16.71l-.22,1v.05H6.9l0-.13c0-.07,0-.19,0-.26l0-.13H8.33l1.36,0s.05-.21.11-.46c.12-.57.5-2.25.51-2.32v0H9a9.45,9.45,0,0,1-1.38,0,2.3,2.3,0,0,1,.05-.35l.06-.32h4.15L12,8.3c.1-.44.19-.82.2-.83a14.11,14.11,0,0,1,1.59,0h1.57L15.49,7l.16-.56,0-.15H11.75l0,.13-.15.8L11.44,8V8H7.88V8l.06-.27c0-.12.05-.24.06-.26s.1,0,1.44,0h1.42l0-.07.18-.82.16-.75H15.7l0-.1.28-1a15.3,15.3,0,0,0-2.6,0H10.79l0,0ZM6.6,11a.7.7,0,0,1,0,.17l-.07.25,0,.1H4.3A4.05,4.05,0,0,1,4.54,11S6.59,11,6.6,11Zm2.81,0a2.68,2.68,0,0,1-.1.27l-.1.24h-2a3.2,3.2,0,0,1,.14-.5S9.41,11,9.41,11Z" transform="translate(0 0)"/></svg>