<?xml version="1.0" encoding="utf-8"?>
<!-- Generator: Adobe Illustrator 21.0.0, SVG Export Plug-In . SVG Version: 6.00 Build 0)  -->
<svg version="1.1" id="图层_1" xmlns="http://www.w3.org/2000/svg" xmlns:xlink="http://www.w3.org/1999/xlink" x="0px" y="0px"
	 viewBox="0 0 20 20" style="enable-background:new 0 0 20 20;" xml:space="preserve">
<style type="text/css">
	.st0{fill:#FF473E;stroke:#FFFFFF;stroke-miterlimit:10;}
	.st1{fill:#FFFFFF;}
</style>
<title>办事大厅</title>
<circle class="st0" cx="10" cy="10" r="9.5"/>
<path class="st1" d="M6.7,12.4H5.4V8.9C5.2,8.9,5,8.7,5,8.5l0,0V8.1h2.2v0.4c0,0.2-0.2,0.4-0.4,0.4c0,0,0,0,0,0V12.4z M9.3,12.4H8
	V8.9c-0.2,0-0.4-0.2-0.4-0.4l0,0V8.1h2.2v0.4c0,0.2-0.2,0.4-0.4,0.4c0,0,0,0,0,0L9.3,12.4z M12,12.4h-1.3V8.9
	c-0.2,0-0.4-0.2-0.4-0.4l0,0V8.1h2.2v0.4c0,0.2-0.2,0.4-0.4,0.4l0,0V12.4z M14.6,12.4h-1.3V8.9c-0.2,0-0.4-0.2-0.4-0.4l0,0V8.1H15
	v0.4c0,0.2-0.2,0.4-0.4,0.4l0,0L14.6,12.4z M15,13.7c0.2,0,0.4,0.2,0.4,0.4c0,0,0,0,0,0v0.4c0,0.2-0.2,0.4-0.4,0.4H5
	c-0.2,0-0.4-0.2-0.4-0.4c0,0,0,0,0,0v-0.4c0-0.2,0.2-0.4,0.4-0.4l0,0h0.4v-0.9h9.1v0.9H15z M5,7.6c-0.2,0-0.4-0.1-0.4-0.3
	c0-0.2,0-0.4,0.2-0.5l5-3.1c0.1-0.1,0.3-0.1,0.4,0l5,3c0.2,0.1,0.3,0.2,0.3,0.4c0,0.2-0.2,0.4-0.4,0.4L5,7.6z M10,4.7
	c-0.5,0-0.9,0.4-0.9,0.9S9.5,6.6,10,6.6c0.5,0,0.9-0.4,0.9-0.9l0,0C11,5.2,10.5,4.7,10,4.7z"/>
</svg>
