<?xml version="1.0" encoding="utf-8"?>
<!-- Generator: Adobe Illustrator 21.0.0, SVG Export Plug-In . SVG Version: 6.00 Build 0)  -->
<svg version="1.1" id="图层_1" xmlns="http://www.w3.org/2000/svg" xmlns:xlink="http://www.w3.org/1999/xlink" x="0px" y="0px"
	 viewBox="0 0 20 20" style="enable-background:new 0 0 20 20;" xml:space="preserve">
<style type="text/css">
	.st0{fill:#05AFFD;stroke:#FFFFFF;stroke-miterlimit:10;}
	.st1{fill:#FFFFFF;}
</style>
<title>办事大厅</title>
<circle class="st0" cx="10" cy="10" r="9.5"/>
<path class="st1" d="M10.9,10.7v3h3.3c0.4,0,0.8,0.3,0.8,0.8c0,0.4-0.3,0.8-0.8,0.8H6.1c-0.4,0-0.8-0.3-0.8-0.8
	c0-0.4,0.3-0.8,0.8-0.8h3.3v-3H8.7c-0.4,0-0.8-0.3-0.8-0.8s0.3-0.8,0.8-0.8h3c0.4,0,0.8,0.3,0.8,0.8s-0.3,0.8-0.8,0.8H10.9z
	 M9.2,4.2c0.1-0.6,0.6-0.9,1.2-0.8c0.4,0.1,0.8,0.4,0.8,0.8c1,0.2,2,0.7,2.8,1.5c2.1,2.1,2.1,5.5,0,7.5c-0.3,0.3-0.8,0.3-1.1,0
	c-0.3-0.3-0.3-0.8,0-1.1l0,0c1.5-1.5,1.5-3.9,0-5.4S9,5.3,7.5,6.8s-1.5,3.9,0,5.4c0,0,0,0,0,0c0.3,0.3,0.3,0.8,0,1.1
	c-0.3,0.3-0.8,0.3-1.1,0c-2.1-2.1-2.1-5.5,0-7.5C7.2,4.9,8.1,4.4,9.2,4.2L9.2,4.2z"/>
</svg>
