<?xml version="1.0" encoding="utf-8"?>
<!-- Generator: Adobe Illustrator 21.0.0, SVG Export Plug-In . SVG Version: 6.00 Build 0)  -->
<svg version="1.1" id="图层_1" xmlns="http://www.w3.org/2000/svg" xmlns:xlink="http://www.w3.org/1999/xlink" x="0px" y="0px"
	 viewBox="0 0 20 20" style="enable-background:new 0 0 20 20;" xml:space="preserve">
<style type="text/css">
	.st0{fill:#FF473E;stroke:#FFFFFF;stroke-miterlimit:10;}
	.st1{fill:#FFFFFF;}
</style>
<title>办事大厅</title>
<circle class="st0" cx="10" cy="10" r="9.5"/>
<path class="st1" d="M16.3,10.1L10.3,4c-0.1-0.1-0.1-0.1-0.2-0.1c-0.1,0-0.1,0-0.2,0.1l-6.1,6.1c-0.1,0.1-0.1,0.3,0,0.4
	c0.1,0.1,0.3,0.1,0.4,0l1.3-1.3v6h9.3v-0.1h0V9.3l1.2,1.2c0.1,0.1,0.1,0.1,0.2,0.1c0.1,0,0.1,0,0.2-0.1
	C16.4,10.4,16.4,10.2,16.3,10.1L16.3,10.1z M10.1,13.6C10.1,13.6,10.1,13.6,10.1,13.6C10,13.6,10,13.6,10.1,13.6
	c-0.1,0-1.3-0.7-2.1-1.6c-0.1-0.2-0.3-0.3-0.3-0.5c-0.2-0.4-0.4-0.8-0.3-1.3c0.2-0.8,0.7-1.3,1.3-1.4C9.3,8.8,9.8,9,10,9.4
	c0.2-0.4,0.8-0.7,1.3-0.6c0.7,0.1,1.2,0.6,1.3,1.4C13.1,12,10.2,13.5,10.1,13.6L10.1,13.6z"/>
<path class="st1" d="M9.7,3.9L3.6,10c-0.2,0.2-0.2,0.4,0,0.6l0,0c0.2,0.2,0.4,0.2,0.6,0l6.1-6.1c0.2-0.2,0.2-0.4,0-0.6l0,0
	C10.1,3.8,9.8,3.8,9.7,3.9z"/>
<path class="st1" d="M16.4,9.8l-6.1-6.1c-0.2-0.2-0.4-0.2-0.6,0v0c-0.2,0.2-0.2,0.4,0,0.6l6.1,6.1c0.2,0.2,0.4,0.2,0.6,0h0
	C16.6,10.2,16.6,10,16.4,9.8z"/>
</svg>
