<?xml version="1.0" encoding="utf-8"?>
<!-- Generator: Adobe Illustrator 21.0.0, SVG Export Plug-In . SVG Version: 6.00 Build 0)  -->
<svg version="1.1" id="图层_1" xmlns="http://www.w3.org/2000/svg" xmlns:xlink="http://www.w3.org/1999/xlink" x="0px" y="0px"
	 viewBox="0 0 20 20" style="enable-background:new 0 0 20 20;" xml:space="preserve">
<style type="text/css">
	.st0{fill:#6EC9E1;stroke:#FFFFFF;stroke-miterlimit:10;}
	.st1{fill:#FFFFFF;}
</style>
<circle class="st0" cx="10" cy="10" r="9.5"/>
<path class="st1" d="M9.8,11V4.3c0-0.3-0.3-0.6-0.7-0.5L4.4,5.5C4.2,5.5,4,5.7,4,5.9v8.6c0,0.3,0.2,0.5,0.5,0.5h2.9
	c0.3,0,0.5-0.2,0.5-0.5v-3C8,11.2,8.2,11,8.5,11H9.8z M12,11V4.7c0-0.2-0.1-0.3-0.2-0.4l-1-0.5c-0.3-0.1-0.6,0.1-0.6,0.4V11H12z"/>
<path class="st1" d="M15.7,11.8H9.1c-0.2,0-0.3,0.1-0.3,0.3V15c0,0.1,0,0.1,0.1,0.1h0.9c0.1,0,0.1,0,0.1-0.1v0
	c0-0.3,0.2-0.6,0.6-0.6c0.3,0,0.6,0.2,0.6,0.6c0,0.1,0,0.1,0.1,0.1h3c0.1,0,0.1,0,0.1-0.1c0-0.3,0.2-0.6,0.6-0.6s0.6,0.2,0.6,0.6
	c0,0.1,0,0.1,0.1,0.1H16c0,0,0,0,0,0v-3C16,11.9,15.8,11.8,15.7,11.8z M11,13.6C11,13.7,10.9,13.7,11,13.6l-1.2,0.1
	c-0.1,0-0.1,0-0.1-0.1v-0.9c0-0.1,0-0.1,0.1-0.1h1.1c0.1,0,0.1,0,0.1,0.1V13.6z M13.1,13.6C13.1,13.7,13,13.7,13.1,13.6l-1.2,0.1
	c-0.1,0-0.1,0-0.1-0.1v-0.9c0-0.1,0-0.1,0.1-0.1H13c0.1,0,0.1,0,0.1,0.1V13.6z M15.1,13.6C15.1,13.7,15.1,13.7,15.1,13.6l-1.2,0.1
	c-0.1,0-0.1,0-0.1-0.1v-0.9c0-0.1,0-0.1,0.1-0.1H15c0.1,0,0.1,0,0.1,0.1V13.6z"/>
<path class="st1" d="M10,15c0,0.2,0.2,0.4,0.4,0.4c0.2,0,0.4-0.2,0.4-0.4c0-0.2-0.2-0.4-0.4-0.4C10.1,14.6,10,14.8,10,15z"/>
<path class="st1" d="M14.2,15c0,0.2,0.2,0.4,0.4,0.4c0.2,0,0.4-0.2,0.4-0.4c0-0.2-0.2-0.4-0.4-0.4C14.4,14.6,14.2,14.8,14.2,15z"/>
<path class="st1" d="M12.3,11h2.8V7.2c0-0.3-0.3-0.4-0.5-0.3l-2,0.6c-0.1,0.1-0.2,0.2-0.2,0.3V11z M15.2,7.4V11h0.4
	c0.2,0,0.4-0.2,0.4-0.4V7.4c0-0.1-0.1-0.2-0.2-0.3C15.6,6.9,15.2,7.1,15.2,7.4z"/>
</svg>
