<?xml version="1.0" encoding="utf-8"?>
<!-- Generator: Adobe Illustrator 21.0.0, SVG Export Plug-In . SVG Version: 6.00 Build 0)  -->
<svg version="1.1" id="图层_1" xmlns="http://www.w3.org/2000/svg" xmlns:xlink="http://www.w3.org/1999/xlink" x="0px" y="0px"
	 viewBox="0 0 20 20" style="enable-background:new 0 0 20 20;" xml:space="preserve">
<style type="text/css">
	.st0{fill:#FF473E;stroke:#FFFFFF;stroke-miterlimit:10;}
	.st1{fill:#FFFFFF;}
</style>
<title>办事大厅</title>
<circle class="st0" cx="10" cy="10" r="9.5"/>
<path class="st1" d="M11,15.1v-3.2H9v3.2c-0.1,0-0.1,0-0.2,0H6c-0.3,0-0.6-0.2-0.6-0.6c0-1.3,0-2.7,0-4c0-0.1,0.1-0.2,0.1-0.2
	c0.9-0.8,1.7-1.5,2.6-2.3c0.6-0.5,1.2-1,1.7-1.5c0,0,0.1-0.1,0.1-0.1c0.3,0.3,0.7,0.6,1,0.9c1.1,1,2.3,2,3.4,3
	c0.1,0.1,0.2,0.2,0.2,0.4c0,1.3,0,2.5,0,3.8c0,0.2-0.1,0.4-0.2,0.6c-0.1,0-0.2,0.1-0.2,0.1C13.1,15.1,12.1,15.1,11,15.1
	C11.1,15.1,11.1,15.1,11,15.1z M12.6,6.1V4.6c0-0.3,0.1-0.4,0.4-0.4h1.4c0.2,0,0.3,0.1,0.3,0.4c0,1.1,0,2.1,0,3.2
	c0,0.2,0,0.3,0.2,0.4c0.5,0.4,1,0.9,1.5,1.3c0.2,0.2,0.2,0.3,0,0.6c-0.1,0.2-0.2,0.3-0.4,0.5c-0.2,0.2-0.3,0.2-0.5,0
	c-1.8-1.6-3.5-3.1-5.3-4.7c-0.1-0.1-0.1-0.1-0.2-0.2C9.6,6,9.2,6.4,8.8,6.7C7.4,8,6,9.2,4.5,10.5c-0.2,0.2-0.3,0.2-0.5,0
	c-0.1-0.2-0.3-0.3-0.4-0.5c-0.2-0.2-0.1-0.3,0-0.5C4.5,8.7,5.3,8,6.1,7.3c1.1-0.9,2.1-1.9,3.2-2.8c0.5-0.4,1-0.4,1.4,0
	c0.6,0.5,1.1,1,1.7,1.5C12.5,6.1,12.5,6.1,12.6,6.1z"/>
</svg>
