<?xml version="1.0" encoding="utf-8"?>
<!-- Generator: Adobe Illustrator 21.0.0, SVG Export Plug-In . SVG Version: 6.00 Build 0)  -->
<svg version="1.1" id="图层_1" xmlns="http://www.w3.org/2000/svg" xmlns:xlink="http://www.w3.org/1999/xlink" x="0px" y="0px"
	 viewBox="0 0 20 20" style="enable-background:new 0 0 20 20;" xml:space="preserve">
<style type="text/css">
	.st0{fill:#05AFFD;stroke:#FFFFFF;stroke-miterlimit:10;}
	.st1{fill:#FFFFFF;}
</style>
<title>办事大厅</title>
<circle class="st0" cx="10" cy="10" r="9.5"/>
<path class="st1" d="M14.1,4.3H5.9c-0.4,0-0.8,0.4-0.8,0.8v8.2c0,0.4,0.4,0.8,0.8,0.8h0.9l-0.7,1c-0.1,0.2-0.1,0.4,0.1,0.6
	c0.1,0,0.1,0.1,0.2,0.1c0,0,0,0,0,0c0,0,0,0,0,0h7l0,0l0,0c0,0,0,0,0,0c0,0,0.1,0,0.1,0c0,0,0,0,0,0c0,0,0,0,0.1,0
	c0.2-0.1,0.2-0.4,0.1-0.6c0,0,0,0,0,0l-0.7-1h0.9c0.4,0,0.8-0.4,0.8-0.8V5.1C14.9,4.7,14.5,4.3,14.1,4.3z M6.3,12
	c0-0.5,0.4-0.8,0.8-0.8S8,11.6,8,12c0,0,0,0,0,0c0,0.5-0.4,0.8-0.8,0.8C6.7,12.9,6.3,12.5,6.3,12z M12.7,14.9H7.3l0.6-0.8h4.4
	L12.7,14.9z M12.9,12.9c-0.5,0-0.8-0.4-0.8-0.8c0-0.5,0.4-0.8,0.8-0.8c0,0,0,0,0,0c0.5,0,0.8,0.4,0.8,0.8
	C13.7,12.5,13.3,12.9,12.9,12.9z M13.7,9.2c0,0.4-0.4,0.8-0.8,0.8H7.1c-0.4,0-0.8-0.4-0.8-0.8V8.4c0-0.4,0.4-0.8,0.8-0.8h5.7
	c0.4,0,0.8,0.4,0.8,0.8V9.2z M13.3,6.3H6.7c-0.2,0-0.4-0.2-0.4-0.4s0.2-0.4,0.4-0.4h6.5c0.2,0,0.4,0.2,0.4,0.4S13.5,6.3,13.3,6.3
	L13.3,6.3z"/>
</svg>
