<?xml version="1.0" standalone="no"?><!DOCTYPE svg PUBLIC "-//W3C//DTD SVG 1.1//EN" "http://www.w3.org/Graphics/SVG/1.1/DTD/svg11.dtd"><svg t="1585983132300" class="icon" viewBox="0 0 1024 1024" version="1.1" xmlns="http://www.w3.org/2000/svg" p-id="5624" xmlns:xlink="http://www.w3.org/1999/xlink" width="64" height="64"><defs><style type="text/css"></style></defs><path d="M926.87 301.2H744.94v-49.74c0-128.37-104.42-232.79-232.79-232.79-128.35 0-232.77 104.42-232.77 232.79v49.74H97.46c-53.74 0-97.46 43.72-97.46 97.46v491.26c0 73.93 60.15 134.08 134.1 134.08H890.23c73.95 0 134.1-60.15 134.1-134.08V398.66c0-53.74-43.72-97.46-97.46-97.46z m-556.73-49.74c0-78.32 63.71-142.03 142.01-142.03 78.32 0 142.03 63.71 142.03 142.03v49.74H370.14v-49.74z m563.43 638.46c0 23.89-19.44 43.33-43.34 43.33H134.09c-23.9 0-43.34-19.44-43.34-43.33V398.66c0-3.69 3.01-6.71 6.71-6.71H926.88c3.69 0 6.71 3.01 6.71 6.71v491.26z" fill="#2672e3" p-id="5625"></path><path d="M512.17 510.55c-63.24 0-114.39 51.15-114.39 114.39 0 47.85 29.42 88.81 71.22 106.14v66.82c0 23.92 19.25 43.17 43.17 43.17 23.65 0 43.17-19.25 43.17-43.17v-66.82c41.8-17.32 71.22-58.29 71.22-106.14 0-63.24-51.14-114.39-114.39-114.39z" fill="#2672e3" p-id="5626"></path></svg>