<?xml version="1.0" encoding="utf-8"?>
<!-- Generator: Adobe Illustrator 21.0.0, SVG Export Plug-In . SVG Version: 6.00 Build 0)  -->
<svg version="1.1" id="图层_1" xmlns="http://www.w3.org/2000/svg" xmlns:xlink="http://www.w3.org/1999/xlink" x="0px" y="0px"
	 viewBox="0 0 64 64" style="enable-background:new 0 0 64 64;" xml:space="preserve">
<style type="text/css">
	.st0{fill:#2163B2;stroke:#2163B2;stroke-miterlimit:10;}
	.st1{fill:#2163B2;}
</style>
<path class="st0" d="M60.4,49.3H14.2V3.6c0-0.8,0.6-1.4,1.4-1.4S17,2.8,17,3.6v42.9h43.4c0.8,0,1.4,0.6,1.4,1.4
	C61.8,48.7,61.2,49.3,60.4,49.3z"/>
<path class="st1" d="M57.5,6h-37v37.5h37.1L57.5,6 M56.2,61.8c-0.9,0-1.6-0.7-1.6-1.6v-8.1h3.3v8.1C57.9,61.1,57.1,61.8,56.2,61.8
	 M2.2,7.8c0-0.9,0.7-1.6,1.6-1.6H12v3.3H3.8C2.9,9.4,2.2,8.7,2.2,7.8 M2.2,17.7c0-0.9,0.7-1.6,1.6-1.6H12v3.3H3.8
	C2.9,19.4,2.2,18.7,2.2,17.7 M2.2,27.1c0-0.9,0.7-1.6,1.6-1.6H12v3.3H3.8C2.9,28.8,2.2,28,2.2,27.1 M2.2,37.2c0-0.9,0.7-1.6,1.6-1.6
	H12v3.3H3.8C2.9,38.9,2.2,38.2,2.2,37.2 M2.2,47.7c0-0.9,0.7-1.6,1.6-1.6H12v3.3H3.8C2.9,49.3,2.2,48.6,2.2,47.7 M46,61.8
	c-0.9,0-1.6-0.7-1.6-1.6v-8.1h3.3v8.1C47.7,61.1,46.9,61.8,46,61.8 M36.2,61.8c-0.9,0-1.6-0.7-1.6-1.6v-8.1h3.3v8.1
	C37.8,61.1,37.1,61.8,36.2,61.8 M26.4,61.8c-0.9,0-1.6-0.7-1.6-1.6v-8.1H28v8.1C28,61.1,27.3,61.8,26.4,61.8 M15.8,61.7
	c-0.9,0-1.6-0.7-1.6-1.6V52h3.3V60C17.4,60.9,16.7,61.7,15.8,61.7"/>
</svg>
