<?xml version="1.0" standalone="no" ?>
<!DOCTYPE svg PUBLIC "-//W3C//DTD SVG 1.1//EN" "http://www.w3.org/Graphics/SVG/1.1/DTD/svg11.dtd">
<svg t="1583388542281" class="icon" viewBox="0 0 1025 1024" version="1.1" xmlns="http://www.w3.org/2000/svg" p-id="2285" xmlns:xlink="http://www.w3.org/1999/xlink" width="200.1953125" height="200">
    <defs>
        <style type="text/css"></style>
    </defs>
    <path d="M1016.798117 381.460093L702.79794 67.369609c-4.605697-4.515389-10.656319-7.044007-17.158479-7.044007-6.502161 0-12.64309 2.528618-17.248788 7.134315L7.066747 728.783843c-9.482318 9.572625-9.39201 25.015257 0.090308 34.497575l199.128671 197.95467c4.605697 4.515389 10.656319 7.044007 17.158479 7.134315l230.284858 0.541847c6.502161 0 12.64309-2.528618 17.248787-7.134315l545.910574-545.820267c9.482318-9.572625 9.39201-25.015257-0.090307-34.497575zM443.704898 920.146045l-210.055913-0.541847L58.813109 746.032631l312.735867-312.64556 279.502602 279.502602L443.704898 920.146045z" p-id="2286" fill="#777777"></path>
</svg>