<?xml version="1.0" encoding="utf-8"?>
<!-- Generator: Adobe Illustrator 21.0.0, SVG Export Plug-In . SVG Version: 6.00 Build 0)  -->
<svg version="1.1" id="图层_1" xmlns="http://www.w3.org/2000/svg" xmlns:xlink="http://www.w3.org/1999/xlink" x="0px" y="0px"
	 viewBox="0 0 64 64" style="enable-background:new 0 0 64 64;" xml:space="preserve">
<style type="text/css">
	.st0{fill:#2163B2;}
</style>
<path class="st0" d="M7.1,17.1v30.1h49.8V17.1H7.1z M4.1,11h55.9c1.7,0,3.1,1.4,3.1,3.1l0,0v36.2c0,1.7-1.4,3.1-3.1,3.1c0,0,0,0,0,0
	H4.1c-1.7,0-3.1-1.4-3.1-3.1l0,0V14.1C1,12.4,2.4,11,4.1,11z"/>
<path class="st0" d="M14.5,15.4c1.2,0,2.2,1,2.2,2.2v9.1c0,1.2-1,2.2-2.2,2.2c-1.2,0-2.2-1-2.2-2.2v-9.1
	C12.3,16.4,13.3,15.4,14.5,15.4z M23.4,15.4c1.2,0,2.2,1,2.2,2.2v9.1c0,1.2-1,2.2-2.2,2.2c-1.2,0-2.2-1-2.2-2.2v-9.1
	C21.2,16.4,22.2,15.4,23.4,15.4z M32.3,15.4c1.2,0,2.2,1,2.2,2.2v9.1c0,1.2-1,2.2-2.2,2.2c-1.2,0-2.2-1-2.2-2.2v-9.1
	C30.1,16.4,31.1,15.4,32.3,15.4z M41.2,15.4c1.2,0,2.2,1,2.2,2.2v9.1c0,1.2-1,2.2-2.2,2.2c-1.2,0-2.2-1-2.2-2.2v-9.1
	C39,16.4,40,15.4,41.2,15.4z"/>
<path class="st0" d="M50.6,28.8H50c-1.1,0-2-0.9-2-2v-9.7c0-1.1,0.9-2,2-2h0.6c1.1,0,2,0.9,2,2v9.7C52.6,27.9,51.7,28.8,50.6,28.8z"
	/>
</svg>
